<svg xmlns="http://www.w3.org/2000/svg" xmlns:xlink="http://www.w3.org/1999/xlink" viewBox="0,0,256,256" width="100px" height="100px"><g fill="#ffffff" fill-rule="nonzero" stroke="none" stroke-width="1" stroke-linecap="butt" stroke-linejoin="miter" stroke-miterlimit="10" stroke-dasharray="" stroke-dashoffset="0" font-family="none" font-weight="none" font-size="none" text-anchor="none" style="mix-blend-mode: normal"><g transform="scale(2.56,2.56)"><path d="M31.42969,19c-6.83144,0 -12.42969,5.59824 -12.42969,12.42969v37.14062c0,6.83145 5.59824,12.42969 12.42969,12.42969h37.14062c6.83145,0 12.42969,-5.5972 12.42969,-12.42773v-37.14258c0,-6.83144 -5.5972,-12.42969 -12.42773,-12.42969zM31.42969,21h37.14258c5.73947,0 10.42773,4.68913 10.42773,10.42969v7.29102c-0.32553,-0.41985 -0.66502,-0.82772 -1.0293,-1.21289c-0.10155,-1.39687 -0.30482,-3.13501 -0.77344,-4.60547c-0.24237,-0.76051 -0.54843,-1.44924 -0.97461,-1.98242c-0.42618,-0.53318 -1.02098,-0.91992 -1.72266,-0.91992c-0.56221,0 -1.0459,0.26398 -1.39453,0.61914c-0.34863,0.35516 -0.5978,0.79706 -0.81836,1.25c-0.16772,0.34442 -0.29249,0.54363 -0.44141,0.875c-0.04019,-0.93765 -0.01682,-1.72024 -0.25781,-2.89844c-0.19276,-0.94239 -0.4759,-1.85515 -0.95117,-2.57812c-0.47527,-0.72297 -1.20939,-1.26758 -2.13672,-1.26758c-0.76281,0 -1.44567,0.39056 -2.07227,0.95508c-0.62659,0.56452 -1.22595,1.32243 -1.85937,2.19336c-1.26685,1.74185 -2.66356,3.94034 -4.4375,5.89844c-0.12475,0.13179 -0.16831,0.32083 -0.11381,0.49393c0.0545,0.1731 0.19851,0.30308 0.37626,0.33963c0.17776,0.03655 0.36136,-0.02608 0.47973,-0.16364c1.84806,-2.0399 3.26775,-4.28082 4.50391,-5.98047c0.61808,-0.84982 1.19217,-1.56289 1.7207,-2.03906c0.52853,-0.47617 0.98416,-0.69727 1.40234,-0.69727c0.56267,0 0.94199,0.27063 1.30078,0.81641c0.35879,0.54578 0.63011,1.35591 0.80859,2.22852c0.35698,1.74521 0.36467,3.70452 0.39063,4.47266c0.00736,0.20462 0.13872,0.38407 0.33154,0.45293c0.19282,0.06886 0.40814,0.01322 0.54346,-0.14043c0.60887,-0.69047 0.91362,-1.70432 1.3125,-2.52344c0.19944,-0.40956 0.41394,-0.76336 0.63281,-0.98633c0.21887,-0.22297 0.4069,-0.32031 0.67969,-0.32031c0.35333,0 0.63696,0.16404 0.94141,0.54492c0.30445,0.38088 0.5826,0.96941 0.80273,1.66016c0.44027,1.38149 0.66443,3.15801 0.75781,4.5293c0.00762,0.11791 0.05675,0.22931 0.13867,0.31445c0.70584,0.72723 1.32578,1.53775 1.85938,2.41016v20.07617c-2.37584,3.86701 -6.63813,6.46484 -11.5,6.46484c-4.19868,0 -8.50587,-1.94594 -11.25977,-4.95508l0.33594,-0.05078c0.24383,-0.03761 0.4238,-0.24743 0.42383,-0.49414c0,-4.13751 -3.33725,-7.5 -7,-7.5c-3.66275,0 -7,3.36249 -7,7.5c0.00003,0.24671 0.18,0.45653 0.42383,0.49414l0.33594,0.05078c-2.75389,3.00914 -7.06109,4.95508 -11.25977,4.95508c-0.9657,0 -1.90722,-0.10308 -2.81641,-0.29687c-0.1748,-0.03735 -0.35625,0.0214 -0.47599,0.15411c-0.11974,0.13272 -0.15957,0.31923 -0.1045,0.48928c0.05508,0.17005 0.19669,0.2978 0.3715,0.33512c0.97681,0.20821 1.98909,0.31836 3.02539,0.31836c4.72834,0 9.49187,-2.25484 12.42383,-5.77539l0.10156,0.01563c-0.00556,0.0873 -0.02539,0.17137 -0.02539,0.25977c0,2.51306 2.27476,4.5 5,4.5c2.72524,0 5,-1.98694 5,-4.5c0,-0.08811 -0.01982,-0.17253 -0.02539,-0.25977l0.10156,-0.01562c2.93196,3.52055 7.69548,5.77539 12.42383,5.77539c4.67655,0 8.84581,-2.23711 11.5,-5.69141v6.26367c0,5.73947 -4.68913,10.42773 -10.42969,10.42773h-37.14062c-5.74056,0 -10.42969,-4.68913 -10.42969,-10.42969v-6.26562c1.14176,1.48699 2.5586,2.75346 4.18359,3.70703c0.15432,0.10116 0.35182,0.10911 0.51377,0.02069c0.16196,-0.08843 0.26205,-0.25886 0.2604,-0.44338c-0.00166,-0.18452 -0.10479,-0.35313 -0.26831,-0.43863c-1.91884,-1.126 -3.52803,-2.72119 -4.68945,-4.61523v-20.07617c0.53359,-0.87241 1.15354,-1.68293 1.85938,-2.41016c0.08192,-0.08514 0.13105,-0.19654 0.13867,-0.31445c0.09339,-1.37129 0.31754,-3.14781 0.75781,-4.5293c0.22013,-0.69074 0.49829,-1.27928 0.80273,-1.66016c0.30441,-0.38088 0.58808,-0.54492 0.94141,-0.54492c0.27279,0 0.46082,0.09734 0.67969,0.32031c0.21887,0.22297 0.43337,0.57677 0.63281,0.98633c0.39888,0.81912 0.70363,1.83297 1.3125,2.52344c0.13532,0.15366 0.35064,0.2093 0.54346,0.14043c0.19282,-0.06886 0.32418,-0.24832 0.33154,-0.45293c0.02595,-0.76814 0.03365,-2.72744 0.39063,-4.47266c0.17849,-0.87261 0.44981,-1.68274 0.80859,-2.22852c0.35879,-0.54578 0.73811,-0.81641 1.30078,-0.81641c0.35417,0 0.72861,0.1536 1.16211,0.49414c0.4335,0.34054 0.90497,0.85964 1.4043,1.5c0.99865,1.28071 2.11376,3.03827 3.47461,4.81055c2.72171,3.54455 6.50608,7.19531 12.45898,7.19531c1.69366,0 3.21926,-0.29505 4.5918,-0.80078c0.17488,-0.05622 0.30485,-0.20379 0.33853,-0.38437c0.03368,-0.18058 -0.03436,-0.36508 -0.17721,-0.48056c-0.14285,-0.11548 -0.33752,-0.14334 -0.50703,-0.07257c-1.26546,0.46627 -2.66775,0.73828 -4.24609,0.73828c-5.5471,0 -9.01272,-3.34924 -11.66602,-6.80469c-1.32665,-1.72772 -2.43029,-3.47017 -3.47852,-4.81445c-0.52411,-0.67214 -1.03311,-1.24679 -1.57422,-1.67187c-0.54111,-0.42508 -1.13542,-0.70898 -1.78125,-0.70898c-0.92733,0 -1.66144,0.54461 -2.13672,1.26758c-0.47527,0.72297 -0.75841,1.63573 -0.95117,2.57813c-0.241,1.1782 -0.21762,1.96079 -0.25781,2.89844c-0.14892,-0.33137 -0.27369,-0.53058 -0.44141,-0.875c-0.22056,-0.45294 -0.46973,-0.89484 -0.81836,-1.25c-0.34863,-0.35516 -0.83232,-0.61914 -1.39453,-0.61914c-0.70167,0 -1.29648,0.38674 -1.72266,0.91992c-0.42618,0.53318 -0.73224,1.22192 -0.97461,1.98242c-0.46862,1.47046 -0.67188,3.2086 -0.77344,4.60547c-0.36428,0.38517 -0.70376,0.79304 -1.0293,1.21289v-7.29102c0,-5.74056 4.68913,-10.42969 10.42969,-10.42969zM58.48633,36.81641c-0.11296,0.00454 -0.22105,0.04723 -0.30664,0.12109c-0.59786,0.49887 -1.23382,0.9576 -1.91211,1.35938c-0.16187,0.08692 -0.26304,0.25561 -0.26348,0.43935c-0.00044,0.18373 0.09991,0.35291 0.26136,0.44061c0.16145,0.0877 0.35799,0.0798 0.51188,-0.02058c0.72971,-0.43223 1.41079,-0.92204 2.04492,-1.45117c0.16806,-0.13566 0.23003,-0.36389 0.15366,-0.56592c-0.07637,-0.20203 -0.27382,-0.33219 -0.48959,-0.32275zM33.5,38c-0.18032,-0.00255 -0.34804,0.09219 -0.43894,0.24794c-0.0909,0.15575 -0.0909,0.34838 0,0.50413c0.0909,0.15575 0.25863,0.25049 0.43894,0.24794c4.70083,0 8.5,3.79917 8.5,8.5v6c0,4.70083 -3.79917,8.5 -8.5,8.5c-4.70083,0 -8.5,-3.79917 -8.5,-8.5v-6c0,-1.6539 0.47013,-3.19381 1.28516,-4.49805c0.10308,-0.15158 0.11497,-0.34741 0.03097,-0.51034c-0.084,-0.16293 -0.25041,-0.26684 -0.43368,-0.2708c-0.18327,-0.00395 -0.35401,0.09268 -0.44495,0.25184c-0.91097,1.45776 -1.4375,3.18324 -1.4375,5.02734v6c0,5.24117 4.25883,9.5 9.5,9.5c5.24117,0 9.5,-4.25883 9.5,-9.5v-6c0,-5.24117 -4.25883,-9.5 -9.5,-9.5zM67.5,38c-5.24117,0 -9.5,4.25883 -9.5,9.5v6c0,5.24117 4.25883,9.5 9.5,9.5c5.24117,0 9.5,-4.25883 9.5,-9.5v-6c0,-1.30963 -0.26573,-2.56022 -0.74609,-3.69727c-1.44336,-3.41043 -4.82321,-5.80273 -8.75391,-5.80273zM30.51563,38.50977c-0.06196,-0.00093 -0.12355,0.00967 -0.18164,0.03125c-1.19016,0.42031 -2.26956,1.07034 -3.1875,1.89648c-0.14456,0.11605 -0.21305,0.30256 -0.17797,0.48459c0.03509,0.18203 0.168,0.32971 0.34534,0.38371c0.17734,0.054 0.37,0.00547 0.50059,-0.12611c0.82206,-0.73985 1.78773,-1.31962 2.85156,-1.69531c0.23163,-0.07685 0.37395,-0.30968 0.33673,-0.55087c-0.03722,-0.24119 -0.2431,-0.42029 -0.48712,-0.42374zM67.5,39c3.5253,0 6.54139,2.14184 7.83203,5.19141c0.42963,1.01695 0.66797,2.13423 0.66797,3.30859v6c0,4.70083 -3.79917,8.5 -8.5,8.5c-4.70083,0 -8.5,-3.79917 -8.5,-8.5v-6c0,-4.70083 3.79917,-8.5 8.5,-8.5zM35,43c-1.03036,0 -1.98888,0.3116 -2.78711,0.84375c-0.12958,0.0865 -0.21143,0.22846 -0.22139,0.38393c-0.00996,0.15548 0.05312,0.30671 0.1706,0.40904c0.51157,0.44556 0.83789,1.11935 0.83789,1.86328c0,1.39092 -1.10908,2.5 -2.5,2.5c-0.27613,0.00003 -0.49997,0.22387 -0.5,0.5v3.5c0,2.75908 2.24092,5 5,5c2.75908,0 5,-2.24092 5,-5v-5c0,-1.37247 -0.55403,-2.62954 -1.46484,-3.53125l-0.00195,-0.00195c-0.90179,-0.91191 -2.15977,-1.4668 -3.5332,-1.4668zM66,43c-1.03036,0 -1.98888,0.3116 -2.78711,0.84375c-0.12958,0.0865 -0.21143,0.22846 -0.22139,0.38393c-0.00996,0.15548 0.05312,0.30671 0.1706,0.40904c0.51157,0.44556 0.83789,1.11935 0.83789,1.86328c0,1.39092 -1.10908,2.5 -2.5,2.5c-0.27613,0.00003 -0.49997,0.22387 -0.5,0.5v3.5c0,2.75908 2.24092,5 5,5c2.75908,0 5,-2.24092 5,-5v-5c0,-1.37247 -0.55403,-2.62954 -1.46484,-3.53125l-0.00195,-0.00195c-0.90179,-0.91191 -2.15977,-1.4668 -3.5332,-1.4668zM50,55c2.91436,0 5.68736,2.69509 5.91602,6.08398l-0.60156,0.0918c-0.08659,-0.00931 -0.17412,0.00415 -0.25391,0.03906l-5.06055,0.7793l-5.125,-0.78906c-0.04687,-0.0142 -0.09556,-0.02144 -0.14453,-0.02148l-0.64648,-0.09961c0.22866,-3.3889 3.00165,-6.08398 5.91602,-6.08398zM46.00977,62.39258l3.91406,0.60156c0.05048,0.00778 0.10186,0.00778 0.15234,0l3.91406,-0.60156c0.0013,0.03635 0.00977,0.07082 0.00977,0.10742c0,1.90494 -1.75524,3.5 -4,3.5c-2.24476,0 -4,-1.59506 -4,-3.5c0,-0.03693 0.00845,-0.07091 0.00977,-0.10742z"></path></g></g></svg>